<?xml version="1.0" encoding="utf-8"?>
<!-- Generator: Adobe Illustrator 28.0.0, SVG Export Plug-In . SVG Version: 6.00 Build 0)  -->
<svg version="1.1" id="Capa_1" xmlns="http://www.w3.org/2000/svg" xmlns:xlink="http://www.w3.org/1999/xlink" x="0px" y="0px"
	 viewBox="0 0 1080 1080" style="enable-background:new 0 0 1080 1080;" xml:space="preserve">
<path d="M1073.9,542.05c0,22.23,0.27,44.47-0.06,66.7c-0.64,43.49-29.61,76.15-72.24,72.4c-43.22-3.79-68.12,8.16-81.83,51.27
	c-7.8,24.53-26.26,46.12-41.95,67.54c-9.24,12.61-11.49,22.74-2.61,35.94c7.83,11.64,14.71,24.02,20.99,36.58
	c17.15,34.3,8.23,71.5-24.26,91.49c-42.86,26.37-86.49,51.6-130.8,75.44c-33.32,17.93-74.46,8.39-90.25-25.77
	c-19.73-42.69-45.43-59.04-92.53-48.31c-22.92,5.22-48.65-0.14-72.85-2.95c-16.97-1.97-28.27,1.31-35.51,17.94
	c-5.28,12.13-12.75,23.41-20.1,34.5c-20.97,31.62-58.11,42.24-91.5,24.13c-43.59-23.63-86.61-48.41-128.98-74.17
	c-33.5-20.38-46.77-60.93-23.97-92.39c28.96-39.96,25.49-70.8-5.85-106.37c-15.65-17.76-24.59-42.08-33.9-64.54
	c-6.18-14.91-14.48-20.66-30.05-19.49c-13.26,1-26.68,0.59-40,0.07c-38.39-1.48-68.04-29.62-68.85-67.63
	c-1.06-49.63-1.02-99.32-0.02-148.95c0.77-38.05,30.8-70.75,68.47-66.8c47.45,4.98,73.22-10.86,87.74-56.29
	c7.39-23.12,25.24-43.28,40.12-63.48c8.73-11.84,10.81-21.6,2.62-34.09c-7.7-11.74-14.69-24.03-21.1-36.53
	c-17.99-35.07-8.83-72.87,24.57-93.18c42.36-25.76,85.43-50.45,129.04-74.06c34.3-18.57,75.72-9.3,91.8,26.03
	c19.31,42.43,44.73,57.62,90.81,47.4c23-5.1,48.67,0.02,72.87,2.82c17.69,2.05,29.87-0.96,37.26-18.74
	c4.78-11.52,12.01-22.11,18.86-32.66c20.7-31.92,57.89-43.39,91.14-25.54c44.33,23.8,87.99,48.98,130.91,75.26
	c32.55,19.92,45.67,60.13,23.43,90.7c-29.61,40.71-25.52,72.28,6.11,108.32c15.15,17.26,23.99,40.77,32.79,62.62
	c6.39,15.88,15.29,21.93,31.71,20.39c11.02-1.03,22.22-0.32,33.33-0.17c45.81,0.61,74.19,29.31,74.61,75.61
	C1074.07,496.09,1073.9,519.07,1073.9,542.05z M540.31,326.46c-117.67,0.01-213.43,95.63-213.53,213.23
	c-0.1,117.54,95.51,213.3,213.25,213.56c117.28,0.26,213.66-96.01,213.54-213.28C753.45,422.2,657.81,326.45,540.31,326.46z"/>
</svg>
